<?xml version="1.0" encoding="utf-8"?>
<!-- Generator: Adobe Illustrator 19.1.0, SVG Export Plug-In . SVG Version: 6.00 Build 0)  -->
<!DOCTYPE svg PUBLIC "-//W3C//DTD SVG 1.1//EN" "http://www.w3.org/Graphics/SVG/1.1/DTD/svg11.dtd">
<svg version="1.1" id="Layer_1" xmlns="http://www.w3.org/2000/svg" xmlns:xlink="http://www.w3.org/1999/xlink" x="0px" y="0px"
	 width="158.9px" height="120.7px" viewBox="0 0 158.9 120.7" style="enable-background:new 0 0 158.9 120.7;" xml:space="preserve"
	>
<style type="text/css">
	.st0{fill:#C5C9CD;}
	.st1{fill:#EAEAEA;}
	.st2{fill:#9198A8;}
	.st3{fill:#7F8899;}
	.st4{fill:none;stroke:#9198A8;stroke-miterlimit:10;}
</style>
<rect x="22.9" y="-326.2" class="st0" width="55.8" height="37.9"/>
<rect x="78.7" y="-326.2" class="st1" width="55.8" height="37.9"/>
<rect x="-32.9" y="-326.2" class="st2" width="55.8" height="37.9"/>
<rect x="-88.7" y="-326.2" class="st3" width="55.8" height="37.9"/>
<g>
	<g>
		<path class="st0" d="M-383.3-40.9c-14.1-1-36.9,2.6-43.1,17.6c-8,19.4,27.3,17.3,36.8,18.4c-0.6-1.4-1.2-2.8-1.8-4.3
			c-8.8,7.1-17.8,14.2-24.8,23c-4,5-11.6,15.2-7.2,22c4.5,6.9,16.6,5.4,23.5,4.9c11.7-1,23.3-3,34.7-6c3.1-0.8,1.8-5.7-1.3-4.8
			c-9.1,2.5-18.4,4.3-27.8,5.3c-4.1,0.5-8.2,0.9-12.3,0.9c-3.2,0.1-8.8,0.4-11.3-1.9c-5.9-5.4,6.8-18.8,10.2-22.4
			c6.1-6.4,13-11.9,19.9-17.5c1.9-1.5,0.1-4-1.8-4.3c-7.2-0.9-14.5-0.4-21.7-1.7c-3.1-0.5-7-1.3-9.3-3.5c-3.4-3.1-1.3-7.4,1.2-10.2
			c8.5-9.5,24.1-11.6,36-10.8C-380-35.7-380.1-40.7-383.3-40.9L-383.3-40.9z"/>
	</g>
</g>
<line class="st4" x1="11.7" y1="78" x2="146.8" y2="78"/>
<g>
	<path class="st0" d="M14.7,93.6V97h3.5v1.1h-3.5v3.5h4.3v1.1h-5.7V92.5h5.6l-0.2,1.1H14.7z"/>
	<path class="st0" d="M27.2,98.4v4.4h-1.4V92.5h2.7c2.6,0,3.9,1,3.9,2.9c0,1.5-0.7,2.3-2.2,2.8l2.8,4.6h-1.7l-2.5-4.4H27.2z
		 M30.9,95.4c0-1.3-0.7-1.8-2.4-1.8h-1.3v3.7h1.4C30,97.3,30.9,96.8,30.9,95.4z"/>
	<path class="st0" d="M39.3,102.8V92.5h1.4v10.3H39.3z"/>
	<path class="st0" d="M53.9,102.8L49.7,94c0.1,0.9,0.2,2.1,0.2,4v4.7h-1.3V92.5h1.9l4.2,8.8c0-0.2-0.2-1.9-0.2-3.1v-5.6h1.3v10.3
		H53.9z"/>
	<path class="st0" d="M75.9,93.4l-0.8,0.9c-0.7-0.6-1.3-0.8-2.3-0.8c-1.5,0-3,1.1-3,4.2c0,3,1,4.2,2.8,4.2c0.7,0,1.4-0.1,2-0.5v-3.1
		h-1.8l-0.2-1.2H76v5c-0.9,0.6-2,0.9-3.5,0.9c-2.6,0-4.2-1.8-4.2-5.3c0-3.5,2.1-5.3,4.4-5.3C74.2,92.3,75,92.7,75.9,93.4z"/>
	<path class="st0" d="M84.1,98.4v4.4h-1.4V92.5h2.7c2.6,0,3.9,1,3.9,2.9c0,1.5-0.7,2.3-2.2,2.8l2.8,4.6h-1.7l-2.5-4.4H84.1z
		 M87.8,95.4c0-1.3-0.7-1.8-2.4-1.8h-1.3v3.7h1.4C86.9,97.3,87.8,96.8,87.8,95.4z"/>
	<path class="st0" d="M97,100.2l-0.8,2.6h-1.4l3.3-10.3h1.8l3.3,10.3h-1.5l-0.8-2.6H97z M99,93.6L97.4,99h3.2L99,93.6z"/>
	<path class="st0" d="M110.7,97.9v4.8h-1.4V92.5h1.4v4.3h4.3v-4.3h1.4v10.3H115v-4.8H110.7z"/>
	<path class="st0" d="M124.8,100.2l-0.8,2.6h-1.4l3.3-10.3h1.8l3.3,10.3h-1.5l-0.8-2.6H124.8z M126.7,93.6l-1.6,5.4h3.2L126.7,93.6z
		"/>
	<path class="st0" d="M144.9,102.8l-0.4-4.7c-0.1-1.6-0.2-3.4-0.3-4.2l-2.2,7.7h-1.3l-2.4-7.7c0,1.2-0.1,2.8-0.2,4.3l-0.3,4.6h-1.3
		l0.9-10.3h1.9l2.2,7.5l2.1-7.5h1.9l0.9,10.3H144.9z"/>
</g>
<g>
	<path class="st0" d="M4,60c3.4-0.3,6.8-0.8,10.1-1.4c3.3-0.6,6.6-1.4,9.8-2.5c3.2-1.1,6.2-2.6,8.9-4.5c2.7-1.9,4.9-4.5,6.3-7.4
		c0.7-1.5,1.2-3,1.5-4.6c0.3-1.6,0.5-3.3,0.2-4.7c-0.1-0.3-0.2-0.6-0.4-0.8c-0.2-0.2-0.3-0.3-0.5-0.4c-0.5-0.1-1.2,0-1.8,0.3
		c-1.4,0.6-2.7,1.7-3.8,2.8c-1.1,1.1-2.2,2.4-3,3.8c-0.4,0.7-0.7,1.3-0.8,2.1c-0.2,0.9-0.3,1.6-0.4,2.4c-0.3,3.2,0.2,6.5,1.6,9.3
		c1.4,2.9,3.5,5.2,6.4,6.3c2.8,1.1,6.2,1.1,8.9,0c0.3-0.2,0.7-0.3,1-0.5c0.3-0.2,0.6-0.4,0.9-0.6c0.6-0.4,1.2-1,1.4-1.4
		c0.7-1.2,1.2-2.9,1.6-4.4l1.3-4.9c0.5-1.7,1-3.3,1.9-5.1c0.3-0.4,0.5-0.9,1-1.3c0.4-0.4,1.1-1,2.1-1l0.3,0l0.2,0l0.1,0l0.2,0
		l0.3,0.1c0.3,0.1,0.7,0.3,1,0.4c0.5,0.3,1,0.7,1.3,1.2c0.7,0.8,1.1,1.7,1.5,2.5c0.4,0.8,0.7,1.7,1,2.5c0.6,1.6,1.1,3.2,1.7,4.6
		c0.3,0.7,0.7,1.3,1.1,1.8c0.2,0.2,0.4,0.4,0.6,0.6l0.2,0.1l0,0c0,0-0.2-0.1-0.1,0l0.1,0l0.1,0.1l0.6,0.2l0.6,0.2l0.4,0.1
		c0.1,0,0.3,0.1,0.4,0.1c0.2,0,0.3,0,0.5,0l0.5,0c0.2,0,0.3-0.1,0.5-0.1l0.5-0.1c0.2,0,0.3-0.1,0.5-0.2c1.3-0.5,2.5-1.4,3.5-2.6
		c2.1-2.3,3.6-5.3,4.8-8.3l1.1-2.8l1.5,2.6c1.3,2.2,2.6,4.4,4.1,6.3c1.5,1.9,3.3,3.5,5.4,4.4l0.4,0.1l0.2,0.1l0.1,0l0,0l0,0
		c0,0,0.1,0,0,0l0.9,0.3c0.6,0.1,1,0.2,1.6,0.2c1.1,0.1,2.1-0.1,3.1-0.6c2-0.9,3.8-2.8,5.7-4.5c0.8-0.8,1.7-1.9,2.9-2.8
		c0.6-0.4,1.2-0.9,2.3-1.2c0.2,0,0.2,0,0.5,0l0.2,0c0.2,0,0.3,0,0.6,0c0.5,0.1,0.9,0.2,1.4,0.4c0.9,0.4,1.5,1.1,1.9,1.7
		c0.4,0.6,0.7,1.3,1,1.8c0.3,0.6,0.6,1.1,0.9,1.6c0.2,0.3,0.3,0.5,0.5,0.7l0.6,0.8c1.5,2,3.1,3.9,5.1,5.3c1,0.7,2,1.2,3.2,1.6
		l0.9,0.2l0.8,0.1l1.9,0.1l1.7-0.2c0.6-0.2,1.1-0.3,1.7-0.5c1.1-0.5,2.1-1.1,3-1.9c1.8-1.6,3-3.8,3.6-6.2c0.6-2.4,0.7-4.9,0-7.3
		c-0.2-0.6-0.4-1.2-0.6-1.7c-0.3-0.5-0.5-1.1-0.8-1.6l-1.1-1.6c-0.4-0.5-0.8-0.9-1.2-1.4c-1.7-1.8-3.9-3.2-6.3-4
		c-2.4-0.9-4.9-1.3-7.5-1.2c-2.6,0-5.1,0.5-7.6,1.2c-2.5,0.7-4.9,1.7-7.1,3.1c4.3-2.9,9.4-4.6,14.7-4.9c2.6-0.1,5.3,0.2,7.8,1
		c2.5,0.8,4.9,2.2,6.9,4.1c0.5,0.5,1,1,1.4,1.5l1.2,1.6c0.4,0.6,0.7,1.2,1,1.8c0.3,0.6,0.5,1.3,0.7,1.9c0.8,2.6,0.8,5.5,0.2,8.1
		c-0.6,2.7-2,5.2-4,7.1c-1,1-2.2,1.7-3.5,2.3c-0.6,0.3-1.3,0.4-2,0.7c-0.7,0.1-1.5,0.2-2.2,0.3l-1.9-0.1l-0.1,0l-0.1,0l0,0l-0.1,0
		l-0.3,0l-0.5-0.1l-1-0.3c-1.4-0.4-2.6-1-3.8-1.8c-2.3-1.6-4.2-3.6-5.8-5.7l-0.6-0.8c-0.2-0.3-0.4-0.6-0.6-0.9
		c-0.4-0.6-0.7-1.2-1-1.8c-0.6-1.2-1.2-2.2-1.8-2.4c-0.2-0.1-0.4-0.1-0.5-0.1c0,0-0.2,0-0.4,0l-0.2,0c0.1,0,0,0,0,0
		c-0.2,0-0.7,0.3-1.1,0.6c-0.9,0.7-1.6,1.7-2.7,2.7c-1.9,1.7-3.7,3.8-6.4,5.1c-1.3,0.7-2.9,1-4.4,0.9c-0.7,0-1.5-0.2-2.2-0.3
		l-0.9-0.3l-1.1-0.4c-2.7-1.1-4.9-3.1-6.6-5.2c-1.7-2.1-3.1-4.5-4.4-6.7l2.6-0.2c-1.3,3.2-2.9,6.4-5.4,9.2c-1.2,1.4-2.7,2.7-4.7,3.4
		c-0.2,0.1-0.5,0.2-0.7,0.3l-0.8,0.1c-0.3,0-0.5,0.1-0.8,0.1l-0.8,0c-0.3,0-0.5,0-0.8,0l-0.8-0.2L68,58.4l-0.6-0.2l-0.6-0.2
		l-0.1-0.1l-0.1,0c0.1,0-0.2-0.1-0.2-0.1l0,0L66,57.5c-0.5-0.3-0.9-0.7-1.3-1.1c-0.7-0.8-1.2-1.7-1.6-2.5c-0.8-1.7-1.3-3.3-1.9-4.9
		c-0.5-1.6-1.1-3.2-1.9-4.1c-0.2-0.2-0.4-0.4-0.6-0.5c-0.1-0.1-0.1,0-0.2-0.1l-0.3-0.1c0,0-0.1,0,0.1,0l0,0l0,0c0,0,0,0,0,0
		c0.1,0,0,0-0.1,0.1c-0.2,0.1-0.3,0.4-0.5,0.7c-0.7,1.2-1.2,2.9-1.6,4.5l-1.4,4.9c-0.5,1.7-1,3.3-2,5.1c-0.1,0.2-0.3,0.5-0.5,0.7
		l-0.2,0.2L52,60.5l-0.1,0.1l0,0l-0.1,0.1c-0.4,0.3-0.7,0.7-1.1,0.9c-0.4,0.3-0.8,0.6-1.2,0.8c-0.4,0.3-0.9,0.4-1.3,0.6
		c-1.8,0.7-3.7,1-5.5,1c-1.9,0-3.7-0.4-5.5-1.1c-0.4-0.2-0.9-0.4-1.3-0.6L35.2,62l-0.5-0.4c-0.8-0.5-1.5-1.1-2.2-1.8
		c-1.3-1.3-2.3-2.9-3.1-4.6c-1.5-3.3-2-7-1.6-10.6c0.1-0.9,0.3-1.9,0.5-2.6c0.2-0.9,0.7-1.8,1.1-2.6c1-1.6,2.1-2.9,3.4-4.2
		c1.3-1.2,2.7-2.3,4.5-3.1c0.9-0.4,1.9-0.7,3.1-0.4c0.6,0.2,1.2,0.6,1.5,1.1c0.3,0.5,0.5,1,0.6,1.5c0.4,2,0,3.7-0.3,5.4
		c-0.4,1.7-1,3.4-1.8,5c-1.6,3.2-4.1,5.8-7,7.7c-2.9,2-6.1,3.3-9.4,4.3C17.6,58.9,10.8,59.6,4,60z"/>
</g>
<g>
	<path class="st0" d="M82.2,17.6c0,0-0.1-0.2-0.3-0.4c-0.3-0.2-0.7-0.3-1.2-0.2c-0.3,0-0.6,0.1-0.8,0.1c-0.1,0-0.3,0.1-0.4,0.1
		c-0.2,0.1-0.3,0.1-0.4,0.2c-0.5,0.3-0.9,0.8-0.9,1.4c0,0.6,0.3,1.2,0.7,1.5c0.2,0.2,0.5,0.3,0.7,0.3c0.2,0,0.5,0,0.7-0.1
		c0.5-0.2,0.9-0.4,1-0.7c0.1-0.3,0-0.5,0.1-0.5c0,0,0.2,0.1,0.1,0.5c-0.1,0.4-0.4,0.8-1,1.1c-0.3,0.1-0.5,0.3-1,0.3
		c-0.4,0-0.8-0.1-1.2-0.4c-0.7-0.4-1.2-1.3-1.2-2.3c0-0.5,0.2-0.9,0.4-1.3c0.3-0.4,0.6-0.6,1-0.8c0.2-0.1,0.4-0.2,0.6-0.2
		c0.2,0,0.4-0.1,0.6-0.1c0.4,0,0.7,0,1,0.1c0.6,0.1,1.1,0.4,1.3,0.7c0.1,0.1,0.2,0.3,0.2,0.4C82.1,17.5,82.2,17.6,82.2,17.6z"/>
</g>
<g>
</g>
<g>
</g>
<g>
</g>
<g>
</g>
<g>
</g>
<g>
</g>
</svg>
