<?xml version="1.0" encoding="utf-8"?>
<!-- Generator: Adobe Illustrator 19.1.0, SVG Export Plug-In . SVG Version: 6.00 Build 0)  -->
<!DOCTYPE svg PUBLIC "-//W3C//DTD SVG 1.1//EN" "http://www.w3.org/Graphics/SVG/1.1/DTD/svg11.dtd">
<svg version="1.1" id="Layer_1" xmlns="http://www.w3.org/2000/svg" xmlns:xlink="http://www.w3.org/1999/xlink" x="0px" y="0px"
	 width="68.1px" height="68.1px" viewBox="-145 286.9 68.1 68.1" style="enable-background:new -145 286.9 68.1 68.1;"
	 xml:space="preserve">
<style type="text/css">
	.st0{opacity:0.9;}
	.st1{fill:none;stroke:#FFFFFF;stroke-width:2;stroke-miterlimit:10;}
	.st2{fill:none;}
	.st3{display:none;fill:none;}
	.st4{fill:none;stroke:#FFFFFF;stroke-width:1.8033;stroke-miterlimit:10;}
	.st5{fill:#C4C8CC;}
	.st6{fill:#FFFFFF;}
</style>
<symbol  id="navbar_x5F_icon_x5F_back" viewBox="-1 -24 25 24">
	<g class="st0">
		
			<image style="overflow:visible;opacity:0.2;" width="18" height="21" xlink:href="ECF8B82ADB0771AE.png"  transform="matrix(1 0 0 -1 2.7869 -2.8869)">
		</image>
		<g>
			<g>
				<path class="st1" d="M18-19c0-0.4,0-0.5-0.3-0.3l-12,7c-0.3,0.2-0.2,0.5,0.1,0.6l11.9,7C18-4.5,18-4.7,18-5V-19z"/>
			</g>
		</g>
	</g>
	<polygon class="st2" points="24,-24 0,-24 0,0 24,0 	"/>
	<polygon class="st3" points="-1,0 24,0 24,-24 -1,-24 	"/>
</symbol>
<symbol  id="navbar_x5F_icon_x5F_home" viewBox="0 -24 24 24">
	<g class="st0">
		
			<image style="overflow:visible;opacity:0.2;" width="19" height="20" xlink:href="ECF8B82ADB0771B2.png"  transform="matrix(1 0 0 -1 2.7828 -2.8828)">
		</image>
		<g>
			<path class="st4" d="M18.9-12c0-3.8-3.1-6.9-6.9-6.9c-3.8,0-6.9,3.1-6.9,6.9c0,3.8,3.1,6.9,6.9,6.9C15.8-5.1,18.9-8.2,18.9-12z"
				/>
		</g>
	</g>
	<polygon class="st2" points="24,-24 0,-24 0,0 24,0 	"/>
	<polygon class="st3" points="0,-1 24,-1 24,-24 0,-24 	"/>
</symbol>
<symbol  id="navbar_x5F_icon_x5F_recents" viewBox="0 -24 24 24">
	<g class="st0">
		
			<image style="overflow:visible;opacity:0.2;" width="19" height="20" xlink:href="ECF8B82ADB0771B5.png"  transform="matrix(1 0 0 -1 2.6669 -2.7669)">
		</image>
		<g>
			<g>
				<path class="st1" d="M19-5.7C19-5.4,18.6-5,18.2-5H5.8C5.4-5,5-5.4,5-5.7v-12.6C5-18.6,5.4-19,5.8-19h12.4
					c0.4,0,0.8,0.4,0.8,0.7V-5.7z"/>
			</g>
		</g>
	</g>
	<polygon class="st2" points="24,-24 0,-24 0,0 24,0 	"/>
	<polygon class="st3" points="0,-1 24,-1 24,-24 0,-24 	"/>
</symbol>
<circle class="st5" cx="-111" cy="320.9" r="34"/>
<g>
	<path class="st6" d="M-130.6,332.4c0-8.4,0-16.6,0-24.8c0.2-0.1,0.4-0.2,0.6-0.2c4.6,0.1,9.3-0.1,13.9,0.2c3.9,0.3,6.2,3.7,5.2,8.1
		c-0.3,1.2-1.6,2.2-2.3,3.2c2.1,0.5,3.1,2.3,3.3,4.6c0.3,2.9-0.1,5.7-2.9,7.4c-1.1,0.7-2.5,1.3-3.8,1.3
		C-121.1,332.5-125.8,332.4-130.6,332.4z M-124.8,327.9c2.6,0,5,0.1,7.5,0c1.5-0.1,2.3-1.3,2.3-3.1c0-1.9-0.9-3.3-2.4-3.4
		c-2.4-0.1-4.9,0-7.4,0C-124.8,323.6-124.8,325.6-124.8,327.9z M-124.8,317.4c2.4,0,4.7,0,7,0c1.7,0,1.9-1.3,1.9-2.6
		c0.1-1.3-0.1-2.7-1.7-2.8c-2.4-0.2-4.8-0.1-7.2-0.1C-124.8,313.8-124.8,315.5-124.8,317.4z"/>
	<path class="st6" d="M-90.5,324.7c-4.4,0-8.6,0-12.7,0c-0.3,2.1,0.7,3.5,2.7,4.1c2.7,0.8,4.6-0.1,5.7-2.4c1.4,0,2.7,0,4.1,0
		c0.2,2.4-0.8,4.4-3.1,5.5c-3.5,1.7-7.1,1.7-10.6-0.1c-3.9-2-5.4-7.1-3.6-11.9c2-5.6,9.1-8,14-4.6
		C-90.8,317.4-90.3,320.8-90.5,324.7z M-103.3,321.2c2.7,0,5.3,0,7.8,0c0-2.2-1.3-3.6-3.4-3.8C-101.1,317.3-102.9,318.8-103.3,321.2
		z"/>
	<path class="st6" d="M-94.3,309c0,1,0,1.9,0,2.8c-3.4,0-6.8,0-10.2,0c0-0.9,0-1.8,0-2.8C-101.1,309-97.8,309-94.3,309z"/>
</g>
</svg>
