<?xml version="1.0" encoding="utf-8"?>
<!-- Generator: Adobe Illustrator 19.1.0, SVG Export Plug-In . SVG Version: 6.00 Build 0)  -->
<!DOCTYPE svg PUBLIC "-//W3C//DTD SVG 1.1//EN" "http://www.w3.org/Graphics/SVG/1.1/DTD/svg11.dtd">
<svg version="1.1" id="Layer_1" xmlns="http://www.w3.org/2000/svg" xmlns:xlink="http://www.w3.org/1999/xlink" x="0px" y="0px"
	 width="158.9px" height="120.7px" viewBox="0 0 158.9 120.7" style="enable-background:new 0 0 158.9 120.7;" xml:space="preserve"
	>
<style type="text/css">
	.st0{fill:#C5C9CD;}
	.st1{fill:#EAEAEA;}
	.st2{fill:#9198A8;}
	.st3{fill:#7F8899;}
	.st4{fill:none;stroke:#C5C9CD;stroke-width:0.5;stroke-miterlimit:10;}
</style>
<rect x="79.9" y="-66.1" class="st0" width="55.8" height="37.9"/>
<rect x="135.7" y="-66.1" class="st1" width="55.8" height="37.9"/>
<rect x="24" y="-66.1" class="st2" width="55.8" height="37.9"/>
<rect x="-31.8" y="-66.1" class="st3" width="55.8" height="37.9"/>
<line class="st4" x1="22.2" y1="78" x2="137.2" y2="78"/>
<g>
	<path class="st2" d="M14.7,93.6V97h3.5v1.1h-3.5v3.5h4.3v1.1h-5.7V92.5h5.6l-0.2,1.1H14.7z"/>
	<path class="st2" d="M27.2,98.4v4.4h-1.4V92.5h2.7c2.6,0,3.9,1,3.9,2.9c0,1.5-0.7,2.3-2.2,2.8l2.8,4.6h-1.7l-2.5-4.4H27.2z
		 M30.9,95.4c0-1.3-0.7-1.8-2.4-1.8h-1.3v3.7h1.4C30,97.3,30.9,96.8,30.9,95.4z"/>
	<path class="st2" d="M39.3,102.8V92.5h1.4v10.3H39.3z"/>
	<path class="st2" d="M53.9,102.8L49.7,94c0.1,0.9,0.2,2.1,0.2,4v4.7h-1.3V92.5h1.9l4.2,8.8c0-0.2-0.2-1.9-0.2-3.1v-5.6h1.3v10.3
		H53.9z"/>
	<path class="st2" d="M75.9,93.4l-0.8,0.9c-0.7-0.6-1.3-0.8-2.3-0.8c-1.5,0-3,1.1-3,4.2c0,3,1,4.2,2.8,4.2c0.7,0,1.4-0.1,2-0.5v-3.1
		h-1.8l-0.2-1.2H76v5c-0.9,0.6-2,0.9-3.5,0.9c-2.6,0-4.2-1.8-4.2-5.3c0-3.5,2.1-5.3,4.4-5.3C74.2,92.3,75,92.7,75.9,93.4z"/>
	<path class="st2" d="M84.1,98.4v4.4h-1.4V92.5h2.7c2.6,0,3.9,1,3.9,2.9c0,1.5-0.7,2.3-2.2,2.8l2.8,4.6h-1.7l-2.5-4.4H84.1z
		 M87.8,95.4c0-1.3-0.7-1.8-2.4-1.8h-1.3v3.7h1.4C86.9,97.3,87.8,96.8,87.8,95.4z"/>
	<path class="st2" d="M97,100.2l-0.8,2.6h-1.4l3.3-10.3h1.8l3.3,10.3h-1.5l-0.8-2.6H97z M99,93.6L97.4,99h3.2L99,93.6z"/>
	<path class="st2" d="M110.7,97.9v4.8h-1.4V92.5h1.4v4.3h4.3v-4.3h1.4v10.3H115v-4.8H110.7z"/>
	<path class="st2" d="M124.8,100.2l-0.8,2.6h-1.4l3.3-10.3h1.8l3.3,10.3h-1.5l-0.8-2.6H124.8z M126.7,93.6l-1.6,5.4h3.2L126.7,93.6z
		"/>
	<path class="st2" d="M144.9,102.8l-0.4-4.7c-0.1-1.6-0.2-3.4-0.3-4.2l-2.2,7.7h-1.3l-2.4-7.7c0,1.2-0.1,2.8-0.2,4.3l-0.3,4.6h-1.3
		l0.9-10.3h1.9l2.2,7.5l2.1-7.5h1.9l0.9,10.3H144.9z"/>
</g>
<g>
	<path class="st2" d="M4,60c3.4-0.3,6.7-0.8,10.1-1.3c3.3-0.6,6.6-1.3,9.8-2.4c3.2-1.1,6.2-2.5,8.9-4.5c2.7-1.9,4.9-4.5,6.3-7.4
		l1-2.2c0.3-0.8,0.5-1.5,0.6-2.3c0.3-1.6,0.4-3.2,0-4.6c-0.2-0.7-0.6-1.1-1-1.2c-0.5-0.1-1.1,0-1.8,0.3c-0.7,0.3-1.3,0.7-2,1.2
		l-0.4,0.3l-0.5,0.4c-0.3,0.3-0.7,0.6-0.9,0.8c-2.2,2.2-3.6,5.3-3.9,8.4c-0.3,3.1,0.3,6.3,1.8,9.1l0.1,0.3l0,0c0,0-0.1-0.1,0,0
		l0,0.1l0.1,0.1l0.3,0.5l0.3,0.5l0.3,0.4c0.4,0.6,1,1.1,1.6,1.6c1.2,1,2.5,1.8,4,2.4c2.8,1.2,6.1,1.3,8.7,0c1.3-0.7,2.3-1.8,3.1-2.9
		c0.3-0.5,0.5-1.3,0.7-2c0.2-0.8,0.4-1.6,0.6-2.4c0.4-1.6,0.7-3.3,1.1-5c0.2-0.8,0.5-1.7,0.8-2.6c0.3-0.9,0.7-1.7,1.4-2.6
		c0.3-0.4,0.8-0.9,1.4-1.2c0.1-0.1,0.3-0.2,0.5-0.2l0.2-0.1c-0.1,0,0.2-0.1,0.2,0l0,0l0.1,0c0.1,0,0.2,0,0.3-0.1c0.2,0,0.4,0,0.6,0
		c0.8,0,1.4,0.3,2,0.6c0.5,0.3,0.9,0.7,1.3,1.1c1.3,1.6,1.9,3.3,2.6,4.9c0.6,1.6,1.2,3.2,1.8,4.7c0.3,0.7,0.7,1.4,1,1.9
		c0.1,0.1,0.2,0.2,0.2,0.3c0,0,0.1,0.1,0.1,0.1l0.3,0.2c0.4,0.3,0.6,0.4,0.9,0.5c1.2,0.6,2.5,0.6,3.7,0c1.2-0.5,2.4-1.5,3.4-2.7
		c2-2.4,3.6-5.3,4.9-8.3l1.1-2.8l1.5,2.6c1.3,2.2,2.5,4.4,4,6.3c1.5,1.9,3.3,3.5,5.4,4.4c1,0.4,2.2,0.7,3.2,0.8
		c1.1,0,2.1-0.2,3.1-0.6c2-0.9,3.8-2.7,5.8-4.4c0.5-0.4,0.9-0.8,1.5-1.3l0.8-0.6c0.3-0.2,0.6-0.4,0.9-0.6c0.7-0.4,1.4-0.7,2.3-0.9
		c0.9-0.1,1.9,0,2.7,0.5c0.7,0.5,1.3,1,1.7,1.6c0.5,0.6,0.8,1.1,1.2,1.7c0.7,1.1,1.3,2.2,2.1,3.2c0.3,0.4,0.8,1,1.2,1.4
		c0.4,0.4,0.8,0.9,1.2,1.3c0.9,0.9,1.8,1.6,2.8,2.3c2,1.3,4.3,2.1,6.6,1.9c0.6-0.1,1.2-0.1,1.7-0.3l0.2-0.1l0.1,0l0.1,0
		c0,0,0.1,0,0,0l0,0l0.5-0.2l0.9-0.3c0.3-0.1,0.5-0.3,0.8-0.4l0.7-0.4c0.5-0.3,0.9-0.7,1.4-1.1c1.7-1.6,2.8-3.8,3.3-6.2
		c0.5-2.4,0.4-4.9-0.3-7.2c-0.7-2.4-1.9-4.5-3.7-6.3c-1.7-1.7-3.9-3.1-6.3-3.9c-2.4-0.8-4.9-1.2-7.4-1.2c-2.5,0-5.1,0.4-7.5,1.1
		c-2.5,0.7-4.8,1.7-7,3c4.3-2.8,9.3-4.6,14.6-4.9c2.6-0.1,5.2,0.1,7.8,0.9c2.5,0.8,4.9,2.1,6.9,4c2,1.7,3.5,4.2,4.3,6.7
		c0.8,2.6,1,5.3,0.5,8c-0.5,2.7-1.7,5.3-3.7,7.3c-0.5,0.5-1.1,0.9-1.6,1.3l-0.9,0.6c-0.3,0.2-0.6,0.4-0.9,0.5l-0.9,0.4l-0.4,0.2l0,0
		l-0.1,0l-0.1,0l-0.1,0l-0.3,0.1c-0.7,0.2-1.4,0.3-2.1,0.4c-2.8,0.3-5.7-0.6-8-2c-2.3-1.4-4.3-3.4-6-5.5c-0.8-1.1-1.5-2.2-2.2-3.2
		c-0.7-1-1.4-2.1-2.1-2.5c-0.3-0.2-0.6-0.2-1-0.2c-0.4,0.1-0.9,0.3-1.3,0.6c-0.2,0.2-0.4,0.3-0.7,0.4l-0.8,0.6
		c-0.4,0.3-0.9,0.8-1.4,1.2c-1.9,1.7-3.7,3.7-6.4,4.9c-1.3,0.6-2.9,1-4.4,0.9l-0.6,0l-0.6-0.1c-0.4-0.1-0.8-0.1-1.1-0.2l-0.5-0.1
		L93,58.2l-0.1,0l-0.1,0l-0.1,0c-0.3-0.1-0.7-0.2-1-0.4c-2.7-1.1-4.8-3.1-6.5-5.2c-1.7-2.1-3-4.4-4.3-6.6l2.6-0.2
		c-1.3,3.3-3,6.4-5.4,9.1c-1.2,1.4-2.6,2.7-4.5,3.5c-0.9,0.4-2,0.7-3.1,0.6c-1.1,0-2.1-0.3-3.1-0.7c-0.5-0.2-1-0.5-1.3-0.7l-0.3-0.2
		c-0.2-0.1-0.3-0.2-0.4-0.3c-0.2-0.2-0.5-0.4-0.6-0.7c-0.7-0.9-1.1-1.7-1.4-2.5c-0.7-1.6-1.3-3.2-1.9-4.8C61,47.6,60.3,46,59.5,45
		c-0.2-0.2-0.4-0.4-0.6-0.6c-0.2-0.1-0.3-0.1-0.4-0.2c0,0,0,0,0,0c-0.1,0-0.2,0-0.3,0.1c0,0-0.1,0-0.2,0.1c-0.1,0.1-0.3,0.2-0.5,0.5
		c-0.7,1-1.3,2.6-1.7,4.1c-0.4,1.6-0.8,3.2-1.1,4.9c-0.2,0.8-0.4,1.7-0.6,2.5c-0.3,0.9-0.5,1.7-1.1,2.7c-1.1,1.6-2.5,3-4.3,3.9
		c-1.7,0.9-3.7,1.2-5.6,1.2c-1.9,0-3.7-0.5-5.4-1.2c-1.7-0.7-3.3-1.7-4.7-2.9c-0.7-0.6-1.3-1.3-1.9-2.1l-0.4-0.6l-0.3-0.5L30,56.4
		L30,56.2l0-0.1l-0.1-0.1l0,0l-0.1-0.3c-1.6-3.2-2.3-6.9-1.9-10.5c0.5-3.6,2.1-7,4.7-9.6c1.2-1.2,2.7-2.4,4.4-3.1
		c0.9-0.4,2-0.7,3.1-0.3c0.6,0.2,1.1,0.6,1.5,1c0.4,0.4,0.6,0.9,0.7,1.4c0.6,1.9,0.3,3.7,0,5.5c-0.2,0.9-0.5,1.8-0.7,2.5
		c-0.4,0.8-0.7,1.6-1.1,2.4c-1.6,3.1-4.1,5.7-7,7.7c-2.9,1.9-6.1,3.3-9.3,4.3C17.5,59,10.7,59.6,4,60z"/>
</g>
<g>
	<path class="st2" d="M82.2,17.6c0,0-0.1-0.2-0.3-0.4c-0.3-0.2-0.7-0.3-1.2-0.2c-0.3,0-0.6,0.1-0.8,0.1c-0.1,0-0.3,0.1-0.4,0.1
		c-0.2,0.1-0.3,0.1-0.4,0.2c-0.5,0.3-0.9,0.8-0.9,1.4c0,0.6,0.3,1.2,0.7,1.5c0.2,0.2,0.5,0.3,0.7,0.3c0.2,0,0.5,0,0.7-0.1
		c0.5-0.2,0.9-0.4,1-0.7c0.1-0.3,0-0.5,0.1-0.5c0,0,0.2,0.1,0.1,0.5c-0.1,0.4-0.4,0.8-1,1.1c-0.3,0.1-0.5,0.3-1,0.3
		c-0.4,0-0.8-0.1-1.2-0.4c-0.7-0.4-1.2-1.3-1.2-2.3c0-0.5,0.2-0.9,0.4-1.3c0.3-0.4,0.6-0.6,1-0.8c0.2-0.1,0.4-0.2,0.6-0.2
		c0.2,0,0.4-0.1,0.6-0.1c0.4,0,0.7,0,1,0.1c0.6,0.1,1.1,0.4,1.3,0.7c0.1,0.1,0.2,0.3,0.2,0.4C82.1,17.5,82.2,17.6,82.2,17.6z"/>
</g>
<g>
</g>
<g>
</g>
<g>
</g>
<g>
</g>
<g>
</g>
<g>
</g>
</svg>
